<?xml version="1.0" encoding="UTF-8" standalone="no"?>
<!-- Generator: Adobe Illustrator 22.0.1, SVG Export Plug-In . SVG Version: 6.00 Build 0)  -->

<svg
   version="1.1"
   id="Capa_1"
   x="0px"
   y="0px"
   viewBox="0 0 792 612"
   style="enable-background:new 0 0 792 612;"
   xml:space="preserve"
   sodipodi:docname="favicon.svg"
   inkscape:version="1.1.2 (0a00cf5339, 2022-02-04)"
   xmlns:inkscape="http://www.inkscape.org/namespaces/inkscape"
   xmlns:sodipodi="http://sodipodi.sourceforge.net/DTD/sodipodi-0.dtd"
   xmlns="http://www.w3.org/2000/svg"
   xmlns:svg="http://www.w3.org/2000/svg"><defs
   id="defs423" /><sodipodi:namedview
   id="namedview421"
   pagecolor="#ffffff"
   bordercolor="#666666"
   borderopacity="1.0"
   inkscape:pageshadow="2"
   inkscape:pageopacity="0.0"
   inkscape:pagecheckerboard="0"
   showgrid="false"
   inkscape:zoom="0.31474933"
   inkscape:cx="-139.79378"
   inkscape:cy="535.34665"
   inkscape:window-width="1920"
   inkscape:window-height="1003"
   inkscape:window-x="0"
   inkscape:window-y="40"
   inkscape:window-maximized="1"
   inkscape:current-layer="Capa_1" />
<style
   type="text/css"
   id="style2">
	.st0{fill:url(#SVGID_1_);}
	.st1{fill:url(#SVGID_2_);}
	.st2{fill:url(#SVGID_3_);}
	.st3{fill:url(#SVGID_4_);}
	.st4{fill:url(#SVGID_5_);}
	.st5{fill:url(#SVGID_6_);}
	.st6{fill:url(#SVGID_7_);}
	.st7{fill:url(#SVGID_8_);}
	.st8{fill:url(#SVGID_9_);}
	.st9{fill:url(#SVGID_10_);}
	.st10{fill:url(#SVGID_11_);}
	.st11{fill:url(#SVGID_12_);}
	.st12{fill:url(#SVGID_13_);}
	.st13{fill:url(#SVGID_14_);}
	.st14{fill:url(#SVGID_15_);}
	.st15{fill:url(#SVGID_16_);}
	.st16{fill:url(#SVGID_17_);}
	.st17{fill:url(#SVGID_18_);}
	.st18{fill:url(#SVGID_19_);}
	.st19{fill:url(#SVGID_20_);}
	.st20{fill:url(#SVGID_21_);}
	.st21{fill:url(#SVGID_22_);}
	.st22{fill:url(#SVGID_23_);}
	.st23{fill:url(#SVGID_24_);}
	.st24{fill:url(#SVGID_25_);}
	.st25{fill:url(#SVGID_26_);}
	.st26{fill:url(#SVGID_27_);}
	.st27{fill:url(#SVGID_28_);}
	.st28{fill:url(#SVGID_29_);}
	.st29{fill:url(#SVGID_30_);}
	.st30{fill:url(#SVGID_31_);}
	.st31{fill:url(#SVGID_32_);}
	.st32{fill:url(#SVGID_33_);}
	.st33{fill:url(#SVGID_34_);}
	.st34{fill:url(#SVGID_35_);}
	.st35{fill:url(#SVGID_36_);}
	.st36{fill:url(#SVGID_37_);}
	.st37{fill:url(#SVGID_38_);}
	.st38{fill:url(#SVGID_39_);}
	.st39{fill:url(#SVGID_40_);}
	.st40{fill:url(#SVGID_41_);}
	.st41{fill:url(#SVGID_42_);}
</style>

<g
   id="g418"
   transform="matrix(1.6654973,0,0,1.689769,-255.79982,-210.3934)">
	<linearGradient
   id="SVGID_1_"
   gradientUnits="userSpaceOnUse"
   x1="272.57639"
   y1="161.0522"
   x2="547.05231"
   y2="459.2955">
		<stop
   offset="0.1054"
   style="stop-color:#39C6FB"
   id="stop4" />
		<stop
   offset="0.5194"
   style="stop-color:#5A48F0"
   id="stop6" />
	</linearGradient>
	<path
   class="st0"
   d="m 398.3,164.2 c 78.1,0 141.4,63.3 141.4,141.4 0,18.3 -3.5,35.7 -9.8,51.8 3.2,1.3 6,3.2 8.7,5.2 7.1,-17.6 11.1,-36.8 11.1,-57 0,-83.6 -67.8,-151.5 -151.5,-151.5 -83.7,0 -151.5,67.8 -151.5,151.5 0,19.1 3.5,37.3 10,54.1 3,-1.6 6.1,-2.9 9.2,-4 -5.9,-15.6 -9.1,-32.5 -9.1,-50.1 0.1,-78.1 63.4,-141.4 141.5,-141.4 z"
   id="path9"
   style="fill:url(#SVGID_1_)" />
	<linearGradient
   id="SVGID_2_"
   gradientUnits="userSpaceOnUse"
   x1="409.93359"
   y1="214.7124"
   x2="385.39209"
   y2="529.23071">
		<stop
   offset="0.2135"
   style="stop-color:#8DC124"
   id="stop11" />
		<stop
   offset="0.5432"
   style="stop-color:#008937"
   id="stop13" />
		<stop
   offset="0.7649"
   style="stop-color:#00612F"
   id="stop15" />
	</linearGradient>
	<path
   class="st1"
   d="m 549.7,388.7 c -0.1,-0.9 -0.2,-1.8 -0.4,-2.7 -0.1,-0.6 -0.2,-1.2 -0.4,-1.8 -0.2,-1 -0.5,-1.9 -0.8,-2.9 -0.2,-0.6 -0.4,-1.2 -0.6,-1.7 -0.2,-0.6 -0.5,-1.1 -0.7,-1.7 -0.2,-0.6 -0.5,-1.1 -0.8,-1.6 -1.1,-2.2 -2.4,-4.2 -3.8,-6.1 -3.6,-4.6 -8.1,-8.2 -12.6,-10.3 -2.3,-1 -4.6,-1.8 -6.9,-2.3 -1.4,-0.3 -2.8,-0.5 -4.2,-0.6 -6,-0.4 -12,1 -17.1,3.8 -0.1,0.1 -0.2,0.1 -0.4,0.2 -0.5,0.3 -0.9,0.6 -1.4,0.9 -1.5,1 -3,2.2 -4.3,3.6 -0.3,0.3 -0.5,0.6 -0.8,0.9 -1.4,1.6 -2.6,3.3 -3.7,5.2 -0.9,1.7 -1.5,3.3 -2,4.9 -0.1,0.5 -0.2,0.9 -0.3,1.4 -0.2,1 -0.3,2.1 -0.4,3.1 0,0.6 0,1.2 0,1.8 0,0.7 0.1,1.4 0.2,2.1 1,7.4 5.8,13 9.7,15.1 6,3.1 15.4,2.4 21.7,-4.4 0.8,-0.8 1.4,-1.6 1.8,-2.3 -3,-0.7 -5,-2.8 -5.9,-5.4 -1.9,1.8 -4,4.6 -6.9,4.8 -2.4,0.2 -5.7,-0.3 -8.2,-2.3 -0.1,-0.1 -0.2,-0.2 -0.3,-0.3 -0.2,-0.2 -0.4,-0.4 -0.6,-0.6 -0.3,-0.3 -0.5,-0.6 -0.7,-0.9 -0.2,-0.2 -0.3,-0.5 -0.5,-0.7 -0.2,-0.4 -0.4,-0.9 -0.6,-1.4 0,-0.1 -0.1,-0.1 -0.1,-0.2 -0.4,-1.2 -0.6,-2.6 -0.6,-4.3 0,-1.7 0.4,-3.6 1.1,-5.4 0.8,-2.2 2.1,-4.3 3.8,-6.2 0.5,-0.5 1,-1 1.5,-1.5 1.1,-1 2.3,-1.8 3.7,-2.4 0.3,-0.2 0.7,-0.3 1,-0.5 0.7,-0.3 1.4,-0.5 2.2,-0.7 3.8,-0.9 8.4,-0.6 13.6,1.8 12.4,5.8 17.8,16.7 16.7,27.4 -0.4,3.5 -1.4,7.1 -3.2,10.3 -0.9,1.6 -1.9,3.2 -3,4.6 -0.3,0.4 -0.5,0.7 -0.9,1 -28.9,25.6 -80.8,11.9 -102.2,-4.5 -10.9,-8.4 -15.8,-26.7 -15.8,-26.7 -2.2,-7.2 -4,-16.1 -4.7,-27.7 0,-0.7 -0.1,-1.5 -0.1,-2.2 -0.1,-2.2 -0.2,-4.6 -0.2,-7.1 0,-0.8 0,-1.6 0,-2.5 0,-5.1 0.2,-10.6 0.6,-16.6 0.1,-2 0.3,-4.1 0.5,-6.2 0,-0.2 0,-0.5 0.1,-0.8 0.1,-1.2 0.2,-2.4 0.3,-3.6 0.1,-0.5 0.1,-1 0.2,-1.5 0,-0.4 0.1,-0.8 0.1,-1.2 0.1,-1 0.2,-1.9 0.3,-2.9 1.7,-0.5 3.7,-1.6 5.9,-3.1 0.4,-0.3 0.8,-0.6 1.2,-0.9 0.9,-0.7 1.8,-1.5 2.7,-2.4 v 0 c 0.4,-0.4 0.8,-0.8 1.2,-1.3 0.3,-0.3 0.5,-0.6 0.8,-0.9 2.8,-3.4 4.9,-7.6 5.2,-12.5 0,-0.5 0,-1 0,-1.5 -0.1,-5.8 -3.2,-8.9 -7.2,-9 0,0 0,0 0,0 -2.6,0 -5.6,1.3 -8.3,4 -0.3,0.3 -0.7,0.7 -1,1.1 -1.2,1.4 -2.4,3.1 -3.4,5.1 -1.8,3.5 -3.2,7.9 -3.9,13.2 0,0 -2.2,0 -4.8,0 0,0 0,0 0,0 -0.5,0 -1,-0.1 -1.6,-0.1 0,0 -0.1,0 -0.1,0 -0.2,0 -0.5,0 -0.8,0 -0.1,0 -0.1,0 -0.2,0 -0.3,0 -0.6,0 -1,0 -1,0 -2.2,0 -3.4,0 -0.3,0 -0.6,0 -0.9,0 -3.3,0 -6.6,0 -6.6,0 -0.8,-5.9 -2.4,-10.7 -4.4,-14.3 -1.2,-2.1 -2.5,-3.8 -3.9,-5.1 -6.9,-6.8 -15.3,-4.7 -15.5,5 0,0.5 0,1 0,1.5 0.4,7.4 5.2,13.4 10,17.1 0.2,0.2 0.5,0.4 0.7,0.5 2.3,1.7 4.6,2.9 6.4,3.4 0,0 0,0 0,0 0.1,1.2 0.3,2.4 0.4,3.5 0,0 0,0 0,0 0.1,1.2 0.2,2.3 0.4,3.4 0.1,1 0.2,2 0.3,2.9 0.2,2.1 0.4,4.2 0.5,6.2 0.3,4 0.5,7.8 0.5,11.4 0.2,6.3 0.1,11.9 -0.3,17 -0.2,3.6 -0.6,7 -1,10.1 -0.1,0.6 -0.2,1.2 -0.3,1.8 -0.2,1.2 -0.4,2.4 -0.6,3.5 -0.1,0.5 -0.2,0.9 -0.2,1.3 0,0 -0.1,0 -0.1,0 -0.8,4 -1.7,7.6 -2.7,10.9 0,0 -5.3,17.4 -16.2,25.8 -21.4,16.4 -72.8,31 -101.7,5.4 -0.3,-0.3 -0.6,-0.7 -0.9,-1 -1.1,-1.4 -2.1,-2.9 -3,-4.6 -1.8,-3.3 -2.9,-6.8 -3.2,-10.3 -1.1,-10.6 4.3,-21.5 16.7,-27.4 5.2,-2.4 9.7,-2.8 13.6,-1.8 0.8,0.2 1.5,0.4 2.2,0.7 0.4,0.1 0.7,0.3 1,0.5 1.4,0.7 2.6,1.5 3.7,2.4 0.5,0.5 1.1,1 1.5,1.5 1.7,1.9 3,4 3.8,6.2 0.7,1.9 1.1,3.7 1.1,5.4 0,1.7 -0.2,3.1 -0.6,4.3 0,0.1 0,0.1 -0.1,0.2 -0.2,0.5 -0.4,1 -0.6,1.4 -0.1,0.3 -0.3,0.5 -0.5,0.7 -0.2,0.3 -0.5,0.6 -0.7,0.9 -0.2,0.2 -0.4,0.4 -0.6,0.6 -0.1,0.1 -0.2,0.2 -0.3,0.3 -2.5,2 -5.8,2.5 -8.2,2.3 -2,-0.2 -3.7,-1.5 -5.1,-2.9 -0.6,2.8 -2.6,5.2 -6.1,5.6 0,0.1 0.1,0.1 0.1,0.2 6.3,6.7 15.8,7.5 21.7,4.4 3.9,-2 8.7,-7.7 9.7,-15.1 0.1,-0.7 0.1,-1.4 0.2,-2.1 0,-0.6 0,-1.2 0,-1.8 -0.1,-1 -0.2,-2 -0.4,-3.1 -0.1,-0.5 -0.2,-0.9 -0.3,-1.4 -0.4,-1.6 -1.1,-3.2 -2,-4.9 -1,-1.9 -2.3,-3.7 -3.7,-5.2 -0.3,-0.3 -0.5,-0.6 -0.8,-0.9 -1.3,-1.3 -2.8,-2.5 -4.3,-3.6 -0.5,-0.3 -0.9,-0.6 -1.4,-0.9 -0.1,-0.1 -0.2,-0.1 -0.4,-0.2 -5.1,-2.9 -11,-4.2 -17.1,-3.8 -1.4,0.1 -2.8,0.3 -4.2,0.6 -2.3,0.5 -4.7,1.2 -6.9,2.3 -4.5,2.1 -9,5.7 -12.6,10.3 -1.4,1.9 -2.7,3.9 -3.8,6.1 -0.3,0.5 -0.5,1.1 -0.8,1.6 -0.2,0.6 -0.5,1.1 -0.7,1.7 -0.2,0.6 -0.4,1.2 -0.6,1.7 -0.3,0.9 -0.6,1.9 -0.8,2.9 -0.1,0.6 -0.3,1.2 -0.4,1.8 -0.2,0.9 -0.3,1.8 -0.4,2.7 -0.2,1.9 -0.2,3.9 0,5.9 0.5,5.3 2.7,10.7 6.1,16.4 10.2,16.9 35.3,21.4 36.8,21.5 54.6,3.2 76.6,-14.6 89.6,-31.4 1.2,-1.6 2.2,-3.3 3.2,-4.9 0,0 0,0 0,0 0.2,-0.3 0.4,-0.6 0.5,-0.9 0.4,-0.7 0.8,-1.5 1.2,-2.2 0.2,-0.4 0.4,-0.7 0.5,-1.1 0.4,-0.7 0.7,-1.4 1,-2 0.3,-0.7 0.6,-1.3 0.9,-1.9 0.3,-0.6 0.5,-1.2 0.7,-1.7 0.3,-0.8 0.6,-1.6 0.9,-2.3 0.9,-2.6 1.3,-4.1 1.3,-4.1 0,0 0,0 0,-0.1 0.1,-0.2 0.2,-0.6 0.3,-1.2 0.8,-2.9 1.4,-5.9 1.9,-8.8 0.6,-3.7 1.1,-7.5 1.3,-11.4 0.3,-3.8 0.4,-7.7 0.4,-11.5 0,-11 -0.8,-21.9 -1.5,-31.7 -0.1,-1.2 -0.2,-2.4 -0.2,-3.6 0,-0.1 0,-0.2 0,-0.2 -0.1,-1.2 -0.1,-2.3 -0.2,-3.4 0,0 0,0 0,-0.1 0,0 0,0 0,-0.1 0,0 0,0 0,-0.1 0,0 0,0 0,0 0,-0.1 0,-0.2 0,-0.3 0,0 0,0 0,-0.1 0,-0.2 0,-0.5 -0.1,-0.5 h 1.3 0.8 l 9.4,0.1 c 0,0 0,0 0,0 0,0 0.1,0 0.2,-0.1 0,0 0,0 0,0 h 0.8 5.3 c 0,0 0,0.2 0,0.3 0,0.2 0,0.4 -0.1,0.6 0,0.1 0,0.2 0,0.2 -0.1,1.4 -0.2,2.8 -0.2,4.2 0,0.1 0,0.2 0,0.3 -0.1,1.4 -0.2,2.8 -0.3,4.3 -0.1,1.3 -0.2,2.6 -0.3,3.9 -0.1,1.2 -0.2,2.4 -0.2,3.6 -0.1,0.9 -0.1,1.8 -0.2,2.7 -0.1,1.3 -0.2,2.6 -0.2,3.9 -0.1,2.3 -0.2,4.7 -0.3,7.1 0,1.5 -0.1,2.9 -0.1,4.4 0,0.1 0,0.1 0,0.2 0,1.5 0,3 0,4.5 v 0 c 0,4.6 0.2,9.2 0.6,13.8 0.3,3 0.7,6.1 1.2,9.1 0.5,3 1.1,5.9 1.9,8.8 0,0.1 0,0.2 0,0.3 0.1,0.4 0.2,0.8 0.2,0.9 0,0.1 0,0.1 0,0.1 0,0 0.4,1.6 1.3,4.1 0.3,0.7 0.6,1.5 0.9,2.3 0.2,0.6 0.5,1.1 0.7,1.7 0.2,0.6 0.6,1.2 0.9,1.9 0.3,0.7 0.6,1.3 1,2 0.2,0.3 0.4,0.7 0.5,1.1 0.4,0.7 0.8,1.4 1.2,2.2 1.1,1.8 2.2,3.8 3.7,5.7 12.9,16.8 35,34.7 89.6,31.4 1.4,-0.1 26.6,-4.6 36.8,-21.5 3.4,-5.7 5.6,-11.1 6.1,-16.4 0.2,-1.5 0.2,-3.5 0,-5.4 z M 414.8,294.2 c 0.2,-0.4 0.3,-0.8 0.5,-1.3 0.5,-1.3 1.2,-2.7 1.9,-4.2 3.3,-6.1 5.2,-4.7 5.2,-1.7 0,0.4 0,0.9 -0.1,1.3 -0.1,0.4 -0.2,0.9 -0.3,1.4 -0.2,0.6 -0.5,1.3 -0.8,1.9 -0.9,1.6 -1.8,3.1 -3.3,4.4 -0.5,0.4 -1,0.8 -1.6,1.2 -0.8,0.5 -1.7,1 -2.8,1.4 0.3,-1.1 0.7,-2.7 1.3,-4.4 z m -38.7,3.2 c -0.6,-0.4 -1.1,-0.8 -1.6,-1.2 -1.4,-1.3 -2.4,-2.8 -3.3,-4.4 -0.3,-0.6 -0.6,-1.3 -0.8,-1.9 -0.5,-1.5 -0.6,-3.1 -0.3,-4.1 0,-0.1 0.1,-0.2 0.1,-0.3 0.1,-0.1 0.1,-0.3 0.2,-0.4 0.7,-1.2 2.4,-0.8 4.8,3.7 2.1,3.9 3.2,7.3 3.8,10 -1.2,-0.4 -2.1,-0.9 -2.9,-1.4 z"
   id="path18"
   style="fill:url(#SVGID_2_)" />
	<linearGradient
   id="SVGID_3_"
   gradientUnits="userSpaceOnUse"
   x1="405.20071"
   y1="214.34309"
   x2="380.65921"
   y2="528.86133">
		<stop
   offset="0.2135"
   style="stop-color:#8DC124"
   id="stop20" />
		<stop
   offset="0.5432"
   style="stop-color:#008937"
   id="stop22" />
		<stop
   offset="0.7649"
   style="stop-color:#00612F"
   id="stop24" />
	</linearGradient>
	<path
   class="st2"
   d="m 496,320 c -7.2,-1.6 -17.6,-0.1 -25.4,4.8 -4.4,2.5 -8.6,6.1 -11.2,11.1 -6.8,12.6 0.6,29.2 4.6,35.7 4,6.5 7.6,15.3 -1.8,21.7 -9.4,6.4 -19.6,0.2 -24.8,-7.2 -3.6,-5.2 -5,-10.8 -5.4,-14.4 0,0 0,0 0,0 -0.1,-8.5 -1.1,-25.8 11.2,-40.1 18.4,-21.4 39.8,-47.7 33.7,-82.7 -6.1,-35 -45.2,-55.7 -79.6,-55 H 394 c -34.5,-0.7 -73.5,20 -79.6,55 -6.1,35 15.3,61.3 33.7,82.7 11.3,13.1 11.3,28.8 11.2,37.9 0,0 0,0 0,0 0,0.1 0,0.2 0,0.4 0,0.2 0,0.3 0,0.5 -0.1,3.4 -1.3,9.8 -5.5,15.7 -5.2,7.4 -15.4,13.6 -24.8,7.2 -9.4,-6.4 -5.8,-15.2 -1.8,-21.7 4,-6.5 11.4,-23.1 4.6,-35.7 -2.7,-5 -6.9,-8.6 -11.2,-11.1 -7.8,-4.9 -18.3,-6.4 -25.4,-4.8 -12.4,2.8 -20.3,12.5 -17.9,23.8 2.3,10.7 14.1,13.7 19.4,12.8 4.2,-0.8 9,-3.2 11.3,-8.2 -0.3,0 -0.6,0 -0.9,0 -2.6,0 -4.7,-1 -6.2,-2.5 -0.3,0.5 -0.6,0.9 -1,1.3 -2.5,2 -7.6,3.8 -12.3,-1 -2.3,-2.3 -3.2,-5.8 -2.3,-9.4 1,-3.8 4.2,-7.7 11.5,-9.3 3.2,-0.7 6.2,-0.8 9.1,-0.4 4.4,0.8 13.8,3.6 17.8,12 5.3,11.3 -0.2,21.2 -5.5,30.2 -5.3,9.1 -8.2,22.7 3.3,30.9 11.5,8.2 34.5,6.3 43.8,-12.6 1.4,-2.8 2.9,-6.3 3.2,-8.7 0,0 0,0 0,0 4.5,-25.3 -4.1,-42.6 -14.9,-55.1 -16.3,-18.9 -35.2,-42.2 -29.8,-73.2 5.4,-31 40,-49.3 70.5,-48.7 h 2.9 c 30.5,-0.6 65,17.7 70.5,48.7 5.4,31 -13.5,54.3 -29.8,73.2 -10.8,12.5 -19.4,29.7 -14.9,55 0,0 -0.1,0.1 -0.1,0.1 0.4,2.4 1.9,5.9 3.2,8.7 9.3,18.9 32.3,20.8 43.8,12.6 11.5,-8.2 8.6,-21.8 3.3,-30.9 -5.3,-9.1 -10.8,-19 -5.5,-30.2 4,-8.5 13.3,-11.2 17.8,-12 2.9,-0.4 5.9,-0.2 9.1,0.4 7.3,1.6 10.5,5.5 11.5,9.3 1,3.6 0,7.1 -2.3,9.4 -4.6,4.7 -9.7,3.1 -12.2,1.1 -1.1,0.6 -2.5,1 -4.1,1 -1.8,0 -3.4,-0.5 -4.6,-1.3 2,5.9 7.2,8.7 11.8,9.5 5.3,0.9 17.1,-2 19.4,-12.8 2.2,-11.2 -5.7,-20.9 -18.1,-23.7 z"
   id="path27"
   style="fill:url(#SVGID_3_)" />
	<g
   id="g54">
		<linearGradient
   id="SVGID_4_"
   gradientUnits="userSpaceOnUse"
   x1="204.8042"
   y1="223.42349"
   x2="479.28009"
   y2="521.66681">
			<stop
   offset="0.1054"
   style="stop-color:#39C6FB"
   id="stop29" />
			<stop
   offset="0.5194"
   style="stop-color:#5A48F0"
   id="stop31" />
		</linearGradient>
		<path
   class="st3"
   d="m 398.3,446.9 c -23.9,0 -46.5,-5.9 -66.2,-16.4 -3.4,1 -8.5,2.1 -14.9,2.9 23.4,14.9 51.3,23.6 81.1,23.6 29.7,0 57.5,-8.6 80.9,-23.4 -6.4,-0.8 -11.8,-1.7 -15.4,-2.7 -19.7,10.4 -41.8,16 -65.5,16 z"
   id="path34"
   style="fill:url(#SVGID_4_)" />
		<linearGradient
   id="SVGID_5_"
   gradientUnits="userSpaceOnUse"
   x1="162.1176"
   y1="262.70831"
   x2="436.59341"
   y2="560.95172">
			<stop
   offset="2.972973e-02"
   style="stop-color:#D6DD00"
   id="stop36" />
			<stop
   offset="0.2135"
   style="stop-color:#8DC124"
   id="stop38" />
			<stop
   offset="0.5432"
   style="stop-color:#008937"
   id="stop40" />
			<stop
   offset="0.7649"
   style="stop-color:#00612F"
   id="stop42" />
		</linearGradient>
		<path
   class="st4"
   d="m 295.7,402.8 c -2.3,1.3 -4.8,2 -7.5,2 -1.3,0.2 -2.6,0.3 -4,0.3 5.6,6.5 11.8,12.4 18.5,17.8 3.7,-0.1 9,-0.5 14.5,-1.6 -7.8,-5.4 -15,-11.6 -21.5,-18.5 z"
   id="path45"
   style="fill:url(#SVGID_5_)" />
		<linearGradient
   id="SVGID_6_"
   gradientUnits="userSpaceOnUse"
   x1="267.75381"
   y1="165.49049"
   x2="542.22961"
   y2="463.7338">
			<stop
   offset="0.1054"
   style="stop-color:#39C6FB"
   id="stop47" />
			<stop
   offset="0.5194"
   style="stop-color:#5A48F0"
   id="stop49" />
		</linearGradient>
		<path
   class="st5"
   d="m 508.2,405.5 c -3.1,0 -5.9,-0.5 -8.6,-1.4 -6.3,6.5 -13.2,12.3 -20.6,17.5 5.8,1.1 11.3,1.4 14.8,1.4 6.8,-5.5 13,-11.6 18.7,-18.1 -1.4,0.4 -2.8,0.6 -4.3,0.6 z"
   id="path52"
   style="fill:url(#SVGID_6_)" />
	</g>
	<linearGradient
   id="SVGID_7_"
   gradientUnits="userSpaceOnUse"
   x1="204.8042"
   y1="223.42349"
   x2="479.28009"
   y2="521.66681">
		<stop
   offset="2.972973e-02"
   style="stop-color:#D6DD00"
   id="stop56" />
		<stop
   offset="0.2135"
   style="stop-color:#8DC124"
   id="stop58" />
		<stop
   offset="0.5432"
   style="stop-color:#008937"
   id="stop60" />
		<stop
   offset="0.7649"
   style="stop-color:#00612F"
   id="stop62" />
	</linearGradient>
	<path
   class="st6"
   d="m 398.3,446.9 c -23.9,0 -46.5,-5.9 -66.2,-16.4 -3.4,1 -8.5,2.1 -14.9,2.9 23.4,14.9 51.3,23.6 81.1,23.6 29.7,0 57.5,-8.6 80.9,-23.4 -6.4,-0.8 -11.8,-1.7 -15.4,-2.7 -19.7,10.4 -41.8,16 -65.5,16 z"
   id="path65"
   style="fill:url(#SVGID_7_)" />
	<linearGradient
   id="SVGID_8_"
   gradientUnits="userSpaceOnUse"
   x1="503.2142"
   y1="399.39789"
   x2="483.2684"
   y2="436.65521">
		<stop
   offset="2.972973e-02"
   style="stop-color:#D6DD00"
   id="stop67" />
		<stop
   offset="0.2135"
   style="stop-color:#8DC124"
   id="stop69" />
		<stop
   offset="0.5432"
   style="stop-color:#008937"
   id="stop71" />
		<stop
   offset="0.7649"
   style="stop-color:#00612F"
   id="stop73" />
	</linearGradient>
	<path
   class="st7"
   d="m 508.2,405.5 c -3.1,0 -5.9,-0.5 -8.6,-1.4 -6.3,6.5 -13.2,12.3 -20.6,17.5 5.8,1.1 11.3,1.4 14.8,1.4 6.8,-5.5 13,-11.6 18.7,-18.1 -1.4,0.4 -2.8,0.6 -4.3,0.6 z"
   id="path76"
   style="fill:url(#SVGID_8_)" />
	<linearGradient
   id="SVGID_9_"
   gradientUnits="userSpaceOnUse"
   x1="272.57639"
   y1="161.0522"
   x2="547.05231"
   y2="459.2955">
		<stop
   offset="0.1054"
   style="stop-color:#00A85F"
   id="stop78" />
		<stop
   offset="0.5194"
   style="stop-color:#00612F"
   id="stop80" />
	</linearGradient>
	<path
   class="st8"
   d="m 398.3,164.2 c 78.1,0 141.4,63.3 141.4,141.4 0,18.3 -3.5,35.7 -9.8,51.8 3.2,1.3 6,3.2 8.7,5.2 7.1,-17.6 11.1,-36.8 11.1,-57 0,-83.6 -67.8,-151.5 -151.5,-151.5 -83.7,0 -151.5,67.8 -151.5,151.5 0,19.1 3.5,37.3 10,54.1 3,-1.6 6.1,-2.9 9.2,-4 -5.9,-15.6 -9.1,-32.5 -9.1,-50.1 0.1,-78.1 63.4,-141.4 141.5,-141.4 z"
   id="path83"
   style="fill:url(#SVGID_9_)" />
	<linearGradient
   id="SVGID_10_"
   gradientUnits="userSpaceOnUse"
   x1="507.07629"
   y1="358.30231"
   x2="221.8667"
   y2="174.2961">
		<stop
   offset="0.2135"
   style="stop-color:#8DC124"
   id="stop85" />
		<stop
   offset="0.5432"
   style="stop-color:#008937"
   id="stop87" />
		<stop
   offset="0.7649"
   style="stop-color:#00612F"
   id="stop89" />
	</linearGradient>
	<path
   class="st9"
   d="m 398.3,154.1 c -83.6,0 -151.5,67.8 -151.5,151.5 0,19.1 3.5,37.3 10,54.1 3,-1.6 6.1,-2.9 9.2,-4 -0.2,-0.4 -0.3,-0.9 -0.5,-1.3 -1.3,0.6 -2.7,1.2 -4,1.9 -6.2,-16.2 -9.6,-33.9 -9.6,-52.3 0,-80.8 65.5,-146.4 146.4,-146.4 80.9,0 146.3,65.5 146.3,146.4 0,19.5 -3.8,38.1 -10.7,55.1 -1.2,-0.9 -2.4,-1.8 -3.7,-2.6 -0.1,0.3 -0.2,0.6 -0.3,0.8 3.2,1.3 6,3.2 8.7,5.2 7.1,-17.6 11.1,-36.8 11.1,-57 0,-83.6 -67.8,-151.4 -151.4,-151.4 z"
   id="path92"
   style="fill:url(#SVGID_10_)" />
	<linearGradient
   id="SVGID_11_"
   gradientUnits="userSpaceOnUse"
   x1="373.73801"
   y1="406.93921"
   x2="460.37421"
   y2="501.2424">
		<stop
   offset="2.972973e-02"
   style="stop-color:#D6DD00"
   id="stop94" />
		<stop
   offset="0.2135"
   style="stop-color:#8DC124"
   id="stop96" />
		<stop
   offset="0.5432"
   style="stop-color:#008937"
   id="stop98" />
		<stop
   offset="0.7649"
   style="stop-color:#00612F"
   id="stop100" />
	</linearGradient>
	<path
   class="st10"
   d="m 397.3,450.2 c -25.7,0 -49.9,-6.6 -70.9,-18.3 -2.6,0.6 -5.7,1.1 -9.2,1.6 23.4,14.9 51.3,23.6 81.1,23.6 29.7,0 57.5,-8.6 80.9,-23.4 -4.2,-0.5 -8,-1.1 -11.1,-1.7 -21,11.5 -45.1,18.2 -70.8,18.2 z"
   id="path103"
   style="fill:url(#SVGID_11_)" />
	<linearGradient
   id="SVGID_12_"
   gradientUnits="userSpaceOnUse"
   x1="189.646"
   y1="301.298"
   x2="395.2775"
   y2="524.7356">
		<stop
   offset="0.1054"
   style="stop-color:#39C6FB"
   id="stop105" />
		<stop
   offset="0.5194"
   style="stop-color:#5A48F0"
   id="stop107" />
	</linearGradient>
	<path
   class="st11"
   d="m 284.2,405.2 c 5.6,6.5 11.8,12.4 18.5,17.8"
   id="path110"
   style="fill:url(#SVGID_12_)" />
	<linearGradient
   id="SVGID_13_"
   gradientUnits="userSpaceOnUse"
   x1="293.06931"
   y1="399.37219"
   x2="317.57281"
   y2="473.76559">
		<stop
   offset="2.972973e-02"
   style="stop-color:#D6DD00"
   id="stop112" />
		<stop
   offset="0.2135"
   style="stop-color:#8DC124"
   id="stop114" />
		<stop
   offset="0.5432"
   style="stop-color:#008937"
   id="stop116" />
		<stop
   offset="0.7649"
   style="stop-color:#00612F"
   id="stop118" />
	</linearGradient>
	<path
   class="st12"
   d="m 291,404.5 c -0.9,0.2 -1.8,0.3 -2.8,0.3 -1.3,0.2 -2.6,0.3 -4,0.3 5.6,6.5 11.8,12.4 18.5,17.8 2.4,-0.1 5.4,-0.2 8.6,-0.7 C 304,417 297.2,411.1 291,404.5 Z"
   id="path121"
   style="fill:url(#SVGID_13_)" />
	<g
   id="g150">
		<linearGradient
   id="SVGID_14_"
   gradientUnits="userSpaceOnUse"
   x1="175.058"
   y1="324.3598"
   x2="624.96667"
   y2="324.3598">
			<stop
   offset="2.972973e-02"
   style="stop-color:#D6DD00"
   id="stop123" />
			<stop
   offset="0.2135"
   style="stop-color:#8DC124"
   id="stop125" />
			<stop
   offset="0.5432"
   style="stop-color:#008937"
   id="stop127" />
			<stop
   offset="0.7649"
   style="stop-color:#00612F"
   id="stop129" />
		</linearGradient>
		<path
   class="st13"
   d="m 256.9,358.5 c -6.4,-16.8 -10,-35 -10,-54.1 0,-5.2 0.3,-10.3 0.8,-15.3 -0.6,5.4 -0.9,10.9 -0.9,16.5 0,19.1 3.5,37.3 10,54.1 3,-1.6 6.1,-2.9 9.2,-4 -0.1,-0.3 -0.2,-0.6 -0.4,-1 -2.9,1 -5.8,2.3 -8.7,3.8 z"
   id="path132"
   style="fill:url(#SVGID_14_)" />
		<linearGradient
   id="SVGID_15_"
   gradientUnits="userSpaceOnUse"
   x1="175.058"
   y1="342.78629"
   x2="624.96667"
   y2="342.78629">
			<stop
   offset="0.1054"
   style="stop-color:#00A85F"
   id="stop134" />
			<stop
   offset="0.5194"
   style="stop-color:#00612F"
   id="stop136" />
		</linearGradient>
		<path
   class="st14"
   d="m 530.2,356.5 c -0.1,0.3 -0.2,0.6 -0.3,0.8 3.2,1.3 6,3.2 8.7,5.2 5,-12.4 8.5,-25.7 10.1,-39.5 -1.6,13.4 -5,26.3 -10,38.3 -1.5,-1.1 -3,-2.2 -4.6,-3.1"
   id="path139"
   style="fill:url(#SVGID_15_)" />
		<linearGradient
   id="SVGID_16_"
   gradientUnits="userSpaceOnUse"
   x1="175.058"
   y1="238.647"
   x2="624.96667"
   y2="238.647">
			<stop
   offset="0"
   style="stop-color:#00A85F"
   id="stop141" />
			<stop
   offset="0.5054"
   style="stop-color:#FFFFFF"
   id="stop143" />
			<stop
   offset="1"
   style="stop-color:#00612F"
   id="stop145" />
		</linearGradient>
		<path
   class="st15"
   d="m 543.7,320.8 c 0.7,-5.9 1.1,-11.9 1.1,-18 0,-80.8 -65.5,-146.4 -146.4,-146.4 -75.8,0 -138.2,57.7 -145.6,131.5 8,-73.3 70,-130.4 145.5,-130.4 80.8,0 146.4,65.5 146.4,146.4 -0.1,5.8 -0.4,11.4 -1,16.9 z"
   id="path148"
   style="fill:url(#SVGID_16_)" />
	</g>
	<g
   id="g161">
		
			<linearGradient
   id="SVGID_17_"
   gradientUnits="userSpaceOnUse"
   x1="4210.1016"
   y1="6713.689"
   x2="4312.4097"
   y2="6713.918"
   gradientTransform="rotate(180,2327.3777,3577.5965)">
			<stop
   offset="0"
   style="stop-color:#008937"
   id="stop152" />
			<stop
   offset="0.5054"
   style="stop-color:#FFFFFF"
   id="stop154" />
			<stop
   offset="1"
   style="stop-color:#00612F"
   id="stop156" />
		</linearGradient>
		<path
   class="st16"
   d="m 461,435.4 c -19,9.4 -40.3,14.8 -62.8,14.8 -25.6,0 -49.6,-6.8 -70.4,-18.8 -0.5,0.1 -1,0.3 -1.5,0.4 21.1,12.4 45.6,19.6 71.7,19.6 22.9,0 44.4,-5.5 63.6,-15.2 -0.2,-0.4 -0.4,-0.6 -0.6,-0.8 z"
   id="path159"
   style="fill:url(#SVGID_17_)" />
	</g>
	<g
   id="g172">
		
			<linearGradient
   id="SVGID_18_"
   gradientUnits="userSpaceOnUse"
   x1="-4459.6597"
   y1="1105.012"
   x2="-4357.3516"
   y2="1105.2408"
   gradientTransform="matrix(0.2045,0.9789,-0.9789,0.2044,2517.2505,4369.9639)">
			<stop
   offset="0"
   style="stop-color:#FFFFFF;stop-opacity:0"
   id="stop163" />
			<stop
   offset="0.5027"
   style="stop-color:#FFFFFF"
   id="stop165" />
			<stop
   offset="0.9514"
   style="stop-color:#FFFFFF;stop-opacity:0"
   id="stop167" />
		</linearGradient>
		<path
   class="st17"
   d="m 514.3,215.7 c 13.1,16.6 22.7,36.4 27.3,58.4 5.2,25 3.4,49.9 -4,72.7 0.2,0.4 0.5,0.9 0.7,1.4 7.9,-23.2 9.8,-48.6 4.5,-74.2 -4.7,-22.4 -14.4,-42.4 -27.9,-59.2 -0.2,0.4 -0.4,0.6 -0.6,0.9 z"
   id="path170"
   style="fill:url(#SVGID_18_)" />
	</g>
	<g
   id="g262">
		<linearGradient
   id="SVGID_19_"
   gradientUnits="userSpaceOnUse"
   x1="271.1568"
   y1="308.11841"
   x2="366.51331"
   y2="495.92929">
			<stop
   offset="2.972973e-02"
   style="stop-color:#D6DD00"
   id="stop174" />
			<stop
   offset="0.2135"
   style="stop-color:#8DC124"
   id="stop176" />
			<stop
   offset="0.5432"
   style="stop-color:#008937"
   id="stop178" />
			<stop
   offset="0.7649"
   style="stop-color:#00612F"
   id="stop180" />
		</linearGradient>
		<path
   class="st18"
   d="m 287.2,346.3 c -2.3,-2.3 -3.2,-5.8 -2.3,-9.4 0.7,-2.5 2.3,-5.1 5.5,-7 -5.7,1.8 -8.4,5.3 -9.3,8.7 -1,3.6 0,7.1 2.3,9.4 4.5,4.6 9.4,3.2 12,1.2 -2.4,0.4 -5.3,-0.1 -8.2,-2.9 z"
   id="path183"
   style="fill:url(#SVGID_19_)" />
		<linearGradient
   id="SVGID_20_"
   gradientUnits="userSpaceOnUse"
   x1="292.5343"
   y1="297.2644"
   x2="387.8909"
   y2="485.07529">
			<stop
   offset="2.972973e-02"
   style="stop-color:#D6DD00"
   id="stop185" />
			<stop
   offset="0.2135"
   style="stop-color:#8DC124"
   id="stop187" />
			<stop
   offset="0.5432"
   style="stop-color:#008937"
   id="stop189" />
			<stop
   offset="0.7649"
   style="stop-color:#00612F"
   id="stop191" />
		</linearGradient>
		<path
   class="st19"
   d="m 291.1,321.7 c 7.2,-1.6 17.6,-0.1 25.4,4.8 4.4,2.5 8.6,6.1 11.2,11.1 6.8,12.6 -0.6,29.2 -4.6,35.7 -4,6.5 -7.6,15.3 1.8,21.7 5.7,3.9 11.8,3.1 16.8,0.2 -4.1,1.3 -8.7,1.1 -13,-1.9 -9.4,-6.4 -5.8,-15.2 -1.8,-21.7 4,-6.5 11.4,-23.1 4.6,-35.7 -2.7,-5 -6.9,-8.6 -11.2,-11.1 -7.8,-4.9 -18.3,-6.4 -25.4,-4.8 -2.6,0.6 -5.1,1.5 -7.3,2.7 1.1,-0.4 2.3,-0.7 3.5,-1 z"
   id="path194"
   style="fill:url(#SVGID_20_)" />
		<linearGradient
   id="SVGID_21_"
   gradientUnits="userSpaceOnUse"
   x1="278.67651"
   y1="304.30042"
   x2="374.03311"
   y2="492.1113">
			<stop
   offset="2.972973e-02"
   style="stop-color:#D6DD00"
   id="stop196" />
			<stop
   offset="0.2135"
   style="stop-color:#8DC124"
   id="stop198" />
			<stop
   offset="0.5432"
   style="stop-color:#008937"
   id="stop200" />
			<stop
   offset="0.7649"
   style="stop-color:#00612F"
   id="stop202" />
		</linearGradient>
		<path
   class="st20"
   d="m 305.3,348.8 c -0.3,0 -0.6,0 -0.9,0 -1.2,3.4 -3.4,5.8 -6,7.4 3.6,-1.1 7.2,-3.5 9.1,-7.6 -0.6,0.1 -1.3,0.2 -2.2,0.2 z"
   id="path205"
   style="fill:url(#SVGID_21_)" />
		<linearGradient
   id="SVGID_22_"
   gradientUnits="userSpaceOnUse"
   x1="414.2381"
   y1="235.4722"
   x2="509.5947"
   y2="423.28311">
			<stop
   offset="2.972973e-02"
   style="stop-color:#D6DD00"
   id="stop207" />
			<stop
   offset="0.2135"
   style="stop-color:#8DC124"
   id="stop209" />
			<stop
   offset="0.5432"
   style="stop-color:#008937"
   id="stop211" />
			<stop
   offset="0.7649"
   style="stop-color:#00612F"
   id="stop213" />
		</linearGradient>
		<path
   class="st21"
   d="m 390.1,195.6 h 1.6 0.1 1.6 c 34.5,-0.7 73.5,20 79.6,55 6.1,35 -15.3,61.3 -33.7,82.7 -12.3,14.3 -11.3,31.5 -11.2,40.1 0,0 0,0 0,0 0.4,3.6 1.7,9.2 5.4,14.4 5,7.2 14.9,13.3 24.1,7.6 -8.1,2.3 -16,-3.1 -20.4,-9.3 -3.6,-5.2 -5,-10.8 -5.4,-14.4 0,0 0,0 0,0 -0.1,-8.5 -1.1,-25.8 11.2,-40.1 18.4,-21.4 39.8,-47.7 33.7,-82.7 -6.1,-35 -45.2,-55.7 -79.6,-55 h -1.6 -0.1 -1.6 c -13.7,-0.3 -28.2,2.8 -41,8.9 11.9,-4.9 24.9,-7.5 37.3,-7.2 z"
   id="path216"
   style="fill:url(#SVGID_22_)" />
		<linearGradient
   id="SVGID_23_"
   gradientUnits="userSpaceOnUse"
   x1="430.82819"
   y1="227.049"
   x2="526.18481"
   y2="414.85989">
			<stop
   offset="2.972973e-02"
   style="stop-color:#D6DD00"
   id="stop218" />
			<stop
   offset="0.2135"
   style="stop-color:#8DC124"
   id="stop220" />
			<stop
   offset="0.5432"
   style="stop-color:#008937"
   id="stop222" />
			<stop
   offset="0.7649"
   style="stop-color:#00612F"
   id="stop224" />
		</linearGradient>
		<path
   class="st22"
   d="m 491.3,347.3 c -0.4,-0.3 -0.7,-0.7 -1,-1.2 -0.9,0.3 -1.9,0.5 -3.1,0.5 -0.4,0 -0.8,0 -1.2,-0.1 0.3,0.9 0.7,1.7 1.5,2.4 2.3,1.8 6.5,3.4 10.8,0.3 -2.8,0.5 -5.4,-0.7 -7,-1.9 z"
   id="path227"
   style="fill:url(#SVGID_23_)" />
		<linearGradient
   id="SVGID_24_"
   gradientUnits="userSpaceOnUse"
   x1="336.7699"
   y1="274.8049"
   x2="432.1264"
   y2="462.61581">
			<stop
   offset="2.972973e-02"
   style="stop-color:#D6DD00"
   id="stop229" />
			<stop
   offset="0.2135"
   style="stop-color:#8DC124"
   id="stop231" />
			<stop
   offset="0.5432"
   style="stop-color:#008937"
   id="stop233" />
			<stop
   offset="0.7649"
   style="stop-color:#00612F"
   id="stop235" />
		</linearGradient>
		<path
   class="st23"
   d="m 353.4,323.9 c -16.3,-18.9 -35.2,-42.2 -29.8,-73.2 3.2,-18.6 16.9,-32.6 33.9,-40.7 -18.7,7.8 -34.2,22.4 -37.7,42.3 -5.4,31 13.5,54.3 29.8,73.2 10.8,12.5 19.4,29.8 14.9,55.1 0,0 0,0 0,0 -0.4,2.4 -1.9,5.9 -3.2,8.7 -3.1,6.4 -7.8,10.8 -13.1,13.6 6.8,-2.5 13,-7.4 16.8,-15.2 1.4,-2.8 2.9,-6.3 3.2,-8.7 0,0 0,0 0,0 4.5,-25.4 -4.1,-42.6 -14.8,-55.1 z"
   id="path238"
   style="fill:url(#SVGID_24_)" />
		<linearGradient
   id="SVGID_25_"
   gradientUnits="userSpaceOnUse"
   x1="439.34641"
   y1="222.72411"
   x2="534.70288"
   y2="410.535">
			<stop
   offset="2.972973e-02"
   style="stop-color:#D6DD00"
   id="stop240" />
			<stop
   offset="0.2135"
   style="stop-color:#8DC124"
   id="stop242" />
			<stop
   offset="0.5432"
   style="stop-color:#008937"
   id="stop244" />
			<stop
   offset="0.7649"
   style="stop-color:#00612F"
   id="stop246" />
		</linearGradient>
		<path
   class="st24"
   d="m 496,320 c -6.5,-1.5 -15.6,-0.4 -23.1,3.5 6.6,-2.5 13.9,-3.1 19.4,-1.8 12.4,2.8 20.3,12.5 17.9,23.8 -1.1,5 -4.2,8.3 -7.7,10.3 4.9,-1.6 10,-5.3 11.5,-12 2.3,-11.3 -5.6,-21 -18,-23.8 z"
   id="path249"
   style="fill:url(#SVGID_25_)" />
		<linearGradient
   id="SVGID_26_"
   gradientUnits="userSpaceOnUse"
   x1="405.65909"
   y1="239.828"
   x2="501.01569"
   y2="427.63889">
			<stop
   offset="2.972973e-02"
   style="stop-color:#D6DD00"
   id="stop251" />
			<stop
   offset="0.2135"
   style="stop-color:#8DC124"
   id="stop253" />
			<stop
   offset="0.5432"
   style="stop-color:#008937"
   id="stop255" />
			<stop
   offset="0.7649"
   style="stop-color:#00612F"
   id="stop257" />
		</linearGradient>
		<path
   class="st25"
   d="m 467.5,339.2 c 2,-4.3 5.4,-7.1 8.9,-9 -4.5,1.6 -9.9,4.7 -12.6,10.6 -5.3,11.3 0.2,21.2 5.5,30.2 5.3,9.1 8.2,22.7 -3.3,30.9 -0.7,0.5 -1.4,0.9 -2.1,1.3 2.1,-0.8 4.1,-1.7 5.8,-3 11.5,-8.2 8.6,-21.8 3.3,-30.9 -5.4,-9 -10.8,-18.9 -5.5,-30.1 z"
   id="path260"
   style="fill:url(#SVGID_26_)" />
	</g>
	<linearGradient
   id="SVGID_27_"
   gradientUnits="userSpaceOnUse"
   x1="315.82529"
   y1="207.3696"
   x2="291.28391"
   y2="521.88702">
		<stop
   offset="2.972973e-02"
   style="stop-color:#D6DD00"
   id="stop264" />
		<stop
   offset="0.2135"
   style="stop-color:#8DC124"
   id="stop266" />
		<stop
   offset="0.5432"
   style="stop-color:#008937"
   id="stop268" />
		<stop
   offset="0.7649"
   style="stop-color:#00612F"
   id="stop270" />
	</linearGradient>
	<path
   class="st26"
   d="m 305.5,329.1 c -5.9,0 -10.6,4.8 -10.6,10.6 0,5.8 4.8,10.6 10.6,10.6 5.9,0 10.6,-4.8 10.6,-10.6 0,-5.8 -4.7,-10.6 -10.6,-10.6 z m 0,15.3 c -2.6,0 -4.7,-2.1 -4.7,-4.7 0,-2.6 2.1,-4.7 4.7,-4.7 2.6,0 4.7,2.1 4.7,4.7 0,2.6 -2.1,4.7 -4.7,4.7 z"
   id="path273"
   style="fill:url(#SVGID_27_)" />
	<linearGradient
   id="SVGID_28_"
   gradientUnits="userSpaceOnUse"
   x1="495.89719"
   y1="221.4202"
   x2="471.3558"
   y2="535.93799">
		<stop
   offset="2.972973e-02"
   style="stop-color:#D6DD00"
   id="stop275" />
		<stop
   offset="0.2135"
   style="stop-color:#8DC124"
   id="stop277" />
		<stop
   offset="0.5432"
   style="stop-color:#008937"
   id="stop279" />
		<stop
   offset="0.7649"
   style="stop-color:#00612F"
   id="stop281" />
	</linearGradient>
	<path
   class="st27"
   d="m 496.6,335.9 c -2.1,-5.5 -8.3,-8.2 -13.7,-6.1 -5.5,2.1 -8.2,8.3 -6.1,13.7 2.1,5.5 8.3,8.2 13.7,6.1 5.5,-2.1 8.2,-8.3 6.1,-13.7 z m -9.9,8.5 c -2.6,0 -4.7,-2.1 -4.7,-4.7 0,-2.6 2.1,-4.7 4.7,-4.7 2.6,0 4.7,2.1 4.7,4.7 0,2.6 -2.1,4.7 -4.7,4.7 z"
   id="path284"
   style="fill:url(#SVGID_28_)" />
	<linearGradient
   id="SVGID_29_"
   gradientUnits="userSpaceOnUse"
   x1="409.93359"
   y1="214.7124"
   x2="385.39209"
   y2="529.23071">
		<stop
   offset="0.2135"
   style="stop-color:#8DC124"
   id="stop286" />
		<stop
   offset="0.5432"
   style="stop-color:#008937"
   id="stop288" />
		<stop
   offset="0.7649"
   style="stop-color:#00612F"
   id="stop290" />
	</linearGradient>
	<path
   class="st28"
   d="m 549.7,388.7 c -0.1,-0.9 -0.2,-1.8 -0.4,-2.7 -0.1,-0.6 -0.2,-1.2 -0.4,-1.8 -0.2,-1 -0.5,-1.9 -0.8,-2.9 -0.2,-0.6 -0.4,-1.2 -0.6,-1.7 -0.2,-0.6 -0.5,-1.1 -0.7,-1.7 -0.2,-0.6 -0.5,-1.1 -0.8,-1.6 -1.1,-2.2 -2.4,-4.2 -3.8,-6.1 -3.6,-4.6 -8.1,-8.2 -12.6,-10.3 -2.3,-1 -4.6,-1.8 -6.9,-2.3 -1.4,-0.3 -2.8,-0.5 -4.2,-0.6 -6,-0.4 -12,1 -17.1,3.8 -0.1,0.1 -0.2,0.1 -0.4,0.2 -0.5,0.3 -0.9,0.6 -1.4,0.9 -1.5,1 -3,2.2 -4.3,3.6 -0.3,0.3 -0.5,0.6 -0.8,0.9 -1.4,1.6 -2.6,3.3 -3.7,5.2 -0.9,1.7 -1.5,3.3 -2,4.9 -0.1,0.5 -0.2,0.9 -0.3,1.4 -0.2,1 -0.3,2.1 -0.4,3.1 0,0.6 0,1.2 0,1.8 0,0.7 0.1,1.4 0.2,2.1 1,7.4 5.8,13 9.7,15.1 6,3.1 15.4,2.4 21.7,-4.4 1.1,-1.1 1.8,-2.2 2.3,-3.1 -3.2,-0.2 -5.5,-1.9 -6.8,-4.2 -1.7,1.8 -3.7,4.1 -6.5,4.4 -2.4,0.2 -5.7,-0.3 -8.2,-2.3 -0.1,-0.1 -0.2,-0.2 -0.3,-0.3 -0.2,-0.2 -0.4,-0.4 -0.6,-0.6 -0.3,-0.3 -0.5,-0.6 -0.7,-0.9 -0.2,-0.2 -0.3,-0.5 -0.5,-0.7 -0.2,-0.4 -0.4,-0.9 -0.6,-1.4 0,-0.1 -0.1,-0.1 -0.1,-0.2 -0.4,-1.2 -0.6,-2.6 -0.6,-4.3 0,-1.7 0.4,-3.6 1.1,-5.4 0.8,-2.2 2.1,-4.3 3.8,-6.2 0.5,-0.5 1,-1 1.5,-1.5 1.1,-1 2.3,-1.8 3.7,-2.4 0.3,-0.2 0.7,-0.3 1,-0.5 0.7,-0.3 1.4,-0.5 2.2,-0.7 3.8,-0.9 8.4,-0.6 13.6,1.8 12.4,5.8 17.8,16.7 16.7,27.4 -0.4,3.5 -1.4,7.1 -3.2,10.3 -0.9,1.6 -1.9,3.2 -3,4.6 -0.3,0.4 -0.5,0.7 -0.9,1 -28.9,25.6 -80.8,11.9 -102.2,-4.5 -10.9,-8.4 -15.8,-26.7 -15.8,-26.7 -2.2,-7.2 -4,-16.1 -4.7,-27.7 0,-0.7 -0.1,-1.5 -0.1,-2.2 -0.1,-2.2 -0.2,-4.6 -0.2,-7.1 0,-0.8 0,-1.6 0,-2.5 0,-5.1 0.2,-10.6 0.6,-16.6 0.1,-2 0.3,-4.1 0.5,-6.2 0,-0.2 0,-0.5 0.1,-0.8 0.1,-1.2 0.2,-2.4 0.3,-3.6 0.1,-0.5 0.1,-1 0.2,-1.5 0,-0.4 0.1,-0.8 0.1,-1.2 0.1,-1 0.2,-1.9 0.3,-2.9 1.7,-0.5 3.7,-1.6 5.9,-3.1 0.4,-0.3 0.8,-0.6 1.2,-0.9 0.9,-0.7 1.8,-1.5 2.7,-2.4 v 0 c 0.4,-0.4 0.8,-0.8 1.2,-1.3 0.3,-0.3 0.5,-0.6 0.8,-0.9 2.8,-3.4 4.9,-7.6 5.2,-12.5 0,-0.5 0,-1 0,-1.5 -0.1,-5.8 -3.2,-8.9 -7.2,-9 0,0 0,0 0,0 -2.6,0 -5.6,1.3 -8.3,4 -0.3,0.3 -0.7,0.7 -1,1.1 -1.2,1.4 -2.4,3.1 -3.4,5.1 -1.8,3.5 -3.2,7.9 -3.9,13.2 0,0 -2.2,0 -4.8,0 0,0 0,0 0,0 -0.5,0 -1,-0.1 -1.6,-0.1 0,0 -0.1,0 -0.1,0 -0.2,0 -0.5,0 -0.8,0 -0.1,0 -0.1,0 -0.2,0 -0.3,0 -0.6,0 -1,0 -1,0 -2.2,0 -3.4,0 -0.3,0 -0.6,0 -0.9,0 -3.3,0 -6.6,0 -6.6,0 -0.8,-5.9 -2.4,-10.7 -4.4,-14.3 -1.2,-2.1 -2.5,-3.8 -3.9,-5.1 -6.9,-6.8 -15.3,-4.7 -15.5,5 0,0.5 0,1 0,1.5 0.4,7.4 5.2,13.4 10,17.1 0.2,0.2 0.5,0.4 0.7,0.5 2.3,1.7 4.6,2.9 6.4,3.4 0,0 0,0 0,0 0.1,1.2 0.3,2.4 0.4,3.5 0,0 0,0 0,0 0.1,1.2 0.2,2.3 0.4,3.4 0.1,1 0.2,2 0.3,2.9 0.2,2.1 0.4,4.2 0.5,6.2 0.3,4 0.5,7.8 0.5,11.4 0.2,6.3 0.1,11.9 -0.3,17 -0.2,3.6 -0.6,7 -1,10.1 -0.1,0.6 -0.2,1.2 -0.3,1.8 -0.2,1.2 -0.4,2.4 -0.6,3.5 -0.1,0.5 -0.2,0.9 -0.2,1.3 0,0 -0.1,0 -0.1,0 -0.8,4 -1.7,7.6 -2.7,10.9 0,0 -5.3,17.4 -16.2,25.8 -21.4,16.4 -72.8,31 -101.7,5.4 -0.3,-0.3 -0.6,-0.7 -0.9,-1 -1.1,-1.4 -2.1,-2.9 -3,-4.6 -1.8,-3.3 -2.9,-6.8 -3.2,-10.3 -1.1,-10.6 4.3,-21.5 16.7,-27.4 5.2,-2.4 9.7,-2.8 13.6,-1.8 0.8,0.2 1.5,0.4 2.2,0.7 0.4,0.1 0.7,0.3 1,0.5 1.4,0.7 2.6,1.5 3.7,2.4 0.5,0.5 1.1,1 1.5,1.5 1.7,1.9 3,4 3.8,6.2 0.7,1.9 1.1,3.7 1.1,5.4 0,1.7 -0.2,3.1 -0.6,4.3 0,0.1 0,0.1 -0.1,0.2 -0.2,0.5 -0.4,1 -0.6,1.4 -0.1,0.3 -0.3,0.5 -0.5,0.7 -0.2,0.3 -0.5,0.6 -0.7,0.9 -0.2,0.2 -0.4,0.4 -0.6,0.6 -0.1,0.1 -0.2,0.2 -0.3,0.3 -2.5,2 -5.8,2.5 -8.2,2.3 -1.5,-0.1 -2.8,-0.9 -4,-1.9 -0.5,2.9 -2.4,5.4 -5.8,6 6.2,5.6 14.9,6.1 20.5,3.1 3.9,-2 8.7,-7.7 9.7,-15.1 0.1,-0.7 0.1,-1.4 0.2,-2.1 0,-0.6 0,-1.2 0,-1.8 -0.1,-1 -0.2,-2 -0.4,-3.1 -0.1,-0.5 -0.2,-0.9 -0.3,-1.4 -0.4,-1.6 -1.1,-3.2 -2,-4.9 -1,-1.9 -2.3,-3.7 -3.7,-5.2 -0.3,-0.3 -0.5,-0.6 -0.8,-0.9 -1.3,-1.3 -2.8,-2.5 -4.3,-3.6 -0.5,-0.3 -0.9,-0.6 -1.4,-0.9 -0.1,-0.1 -0.2,-0.1 -0.4,-0.2 -5.1,-2.9 -11,-4.2 -17.1,-3.8 -1.4,0.1 -2.8,0.3 -4.2,0.6 -2.3,0.5 -4.7,1.2 -6.9,2.3 -4.5,2.1 -9,5.7 -12.6,10.3 -1.4,1.9 -2.7,3.9 -3.8,6.1 -0.3,0.5 -0.5,1.1 -0.8,1.6 -0.2,0.6 -0.5,1.1 -0.7,1.7 -0.2,0.6 -0.4,1.2 -0.6,1.7 -0.3,0.9 -0.6,1.9 -0.8,2.9 -0.1,0.6 -0.3,1.2 -0.4,1.8 -0.2,0.9 -0.3,1.8 -0.4,2.7 -0.2,1.9 -0.2,3.9 0,5.9 0.5,5.3 2.7,10.7 6.1,16.4 10.2,16.9 35.3,21.4 36.8,21.5 54.6,3.2 76.6,-14.6 89.6,-31.4 1.2,-1.6 2.2,-3.3 3.2,-4.9 0,0 0,0 0,0 0.2,-0.3 0.4,-0.6 0.5,-0.9 0.4,-0.7 0.8,-1.5 1.2,-2.2 0.2,-0.4 0.4,-0.7 0.5,-1.1 0.4,-0.7 0.7,-1.4 1,-2 0.3,-0.7 0.6,-1.3 0.9,-1.9 0.3,-0.6 0.5,-1.2 0.7,-1.7 0.3,-0.8 0.6,-1.6 0.9,-2.3 0.9,-2.6 1.3,-4.1 1.3,-4.1 0,0 0,0 0,-0.1 0.1,-0.2 0.2,-0.6 0.3,-1.2 0.8,-2.9 1.4,-5.9 1.9,-8.8 0.6,-3.7 1.1,-7.5 1.3,-11.4 0.3,-3.8 0.4,-7.7 0.4,-11.5 0,-11 -0.8,-21.9 -1.5,-31.7 -0.1,-1.2 -0.2,-2.4 -0.2,-3.6 0,-0.1 0,-0.2 0,-0.2 -0.1,-1.2 -0.1,-2.3 -0.2,-3.4 0,0 0,0 0,-0.1 0,0 0,0 0,-0.1 0,0 0,0 0,-0.1 0,0 0,0 0,0 0,-0.1 0,-0.2 0,-0.3 0,0 0,0 0,-0.1 0,-0.2 0,-0.5 -0.1,-0.5 h 1.3 0.8 l 9.4,0.1 c 0,0 0,0 0,0 0,0 0.1,0 0.2,-0.1 0,0 0,0 0,0 h 0.8 5.3 c 0,0 0,0.2 0,0.3 0,0.2 0,0.4 -0.1,0.6 0,0.1 0,0.2 0,0.2 -0.1,1.4 -0.2,2.8 -0.2,4.2 0,0.1 0,0.2 0,0.3 -0.1,1.4 -0.2,2.8 -0.3,4.3 -0.1,1.3 -0.2,2.6 -0.3,3.9 -0.1,1.2 -0.2,2.4 -0.2,3.6 -0.1,0.9 -0.1,1.8 -0.2,2.7 -0.1,1.3 -0.2,2.6 -0.2,3.9 -0.1,2.3 -0.2,4.7 -0.3,7.1 0,1.5 -0.1,2.9 -0.1,4.4 0,0.1 0,0.1 0,0.2 0,1.5 0,3 0,4.5 v 0 c 0,4.6 0.2,9.2 0.6,13.8 0.3,3 0.7,6.1 1.2,9.1 0.5,3 1.1,5.9 1.9,8.8 0,0.1 0,0.2 0,0.3 0.1,0.4 0.2,0.8 0.2,0.9 0,0.1 0,0.1 0,0.1 0,0 0.4,1.6 1.3,4.1 0.3,0.7 0.6,1.5 0.9,2.3 0.2,0.6 0.5,1.1 0.7,1.7 0.2,0.6 0.6,1.2 0.9,1.9 0.3,0.7 0.6,1.3 1,2 0.2,0.3 0.4,0.7 0.5,1.1 0.4,0.7 0.8,1.4 1.2,2.2 1.1,1.8 2.2,3.8 3.7,5.7 12.9,16.8 35,34.7 89.6,31.4 1.4,-0.1 26.6,-4.6 36.8,-21.5 3.4,-5.7 5.6,-11.1 6.1,-16.4 0.1,-1.4 0.1,-3.4 -0.1,-5.3 z M 414.8,294.2 c 0.2,-0.4 0.3,-0.8 0.5,-1.3 0.5,-1.3 1.2,-2.7 1.9,-4.2 3.3,-6.1 5.2,-4.7 5.2,-1.7 0,0.4 0,0.9 -0.1,1.3 -0.1,0.4 -0.2,0.9 -0.3,1.4 -0.2,0.6 -0.5,1.3 -0.8,1.9 -0.9,1.6 -1.8,3.1 -3.3,4.4 -0.5,0.4 -1,0.8 -1.6,1.2 -0.8,0.5 -1.7,1 -2.8,1.4 0.3,-1.1 0.7,-2.7 1.3,-4.4 z m -38.7,3.2 c -0.6,-0.4 -1.1,-0.8 -1.6,-1.2 -1.4,-1.3 -2.4,-2.8 -3.3,-4.4 -0.3,-0.6 -0.6,-1.3 -0.8,-1.9 -0.5,-1.5 -0.6,-3.1 -0.3,-4.1 0,-0.1 0.1,-0.2 0.1,-0.3 0.1,-0.1 0.1,-0.3 0.2,-0.4 0.7,-1.2 2.4,-0.8 4.8,3.7 2.1,3.9 3.2,7.3 3.8,10 -1.2,-0.4 -2.1,-0.9 -2.9,-1.4 z"
   id="path293"
   style="fill:url(#SVGID_29_)" />
	<g
   id="g394">
		<linearGradient
   id="SVGID_30_"
   gradientUnits="userSpaceOnUse"
   x1="371.17139"
   y1="231.4438"
   x2="383.17139"
   y2="445.94379">
			<stop
   offset="0.2135"
   style="stop-color:#8DC124"
   id="stop295" />
			<stop
   offset="0.5432"
   style="stop-color:#008937"
   id="stop297" />
			<stop
   offset="0.7649"
   style="stop-color:#00612F"
   id="stop299" />
		</linearGradient>
		<path
   class="st29"
   d="m 375.1,284.8 c -2.4,-4.4 -4,-4.9 -4.8,-3.7 -0.1,0.1 -0.1,0.2 -0.2,0.4 0,0.1 -0.1,0.2 -0.1,0.3 -0.2,0.9 -0.2,2.2 0.2,3.5 0,-0.1 0.1,-0.1 0.1,-0.2 0.7,-1.2 2.4,-0.8 4.8,3.7 1,1.9 1.8,3.7 2.4,5.4 0.4,0.2 0.9,0.4 1.3,0.6 -0.5,-2.7 -1.6,-6.1 -3.7,-10 z"
   id="path302"
   style="fill:url(#SVGID_30_)" />
		<linearGradient
   id="SVGID_31_"
   gradientUnits="userSpaceOnUse"
   x1="509.99921"
   y1="223.6772"
   x2="521.99908"
   y2="438.17719">
			<stop
   offset="0.2135"
   style="stop-color:#8DC124"
   id="stop304" />
			<stop
   offset="0.5432"
   style="stop-color:#008937"
   id="stop306" />
			<stop
   offset="0.7649"
   style="stop-color:#00612F"
   id="stop308" />
		</linearGradient>
		<path
   class="st30"
   d="m 524,363 c -5.2,-2.4 -9.7,-2.8 -13.6,-1.8 -0.8,0.2 -1.5,0.4 -2.2,0.7 -0.4,0.1 -0.7,0.3 -1,0.5 -1.4,0.7 -2.6,1.5 -3.7,2.4 -0.5,0.5 -1.1,1 -1.5,1.5 -1.7,1.9 -3,4 -3.8,6.2 -0.7,1.9 -1.1,3.7 -1.1,5.4 0,0.8 0,1.6 0.1,2.3 0.2,-1.2 0.5,-2.5 1,-3.7 0.8,-2.2 2.1,-4.3 3.8,-6.2 0.5,-0.5 1,-1 1.5,-1.5 1.1,-1 2.3,-1.8 3.7,-2.4 0.3,-0.2 0.7,-0.3 1,-0.5 0.7,-0.3 1.4,-0.5 2.2,-0.7 3.8,-0.9 8.4,-0.6 13.6,1.8 10.6,5 16,13.6 16.7,22.7 0.8,-10.4 -4.6,-21 -16.7,-26.7 z"
   id="path311"
   style="fill:url(#SVGID_31_)" />
		<linearGradient
   id="SVGID_32_"
   gradientUnits="userSpaceOnUse"
   x1="495.9566"
   y1="224.4628"
   x2="507.9566"
   y2="438.9628">
			<stop
   offset="0.2135"
   style="stop-color:#8DC124"
   id="stop313" />
			<stop
   offset="0.5432"
   style="stop-color:#008937"
   id="stop315" />
			<stop
   offset="0.7649"
   style="stop-color:#00612F"
   id="stop317" />
		</linearGradient>
		<path
   class="st31"
   d="m 519.9,391.3 c -0.1,0.1 -0.2,0.2 -0.3,0.3 -6.3,6.7 -15.8,7.5 -21.7,4.4 -3.9,-2 -8.7,-7.7 -9.7,-15.1 0,-0.3 0,-0.5 -0.1,-0.8 0,0.3 -0.1,0.6 -0.1,0.9 0,0.6 0,1.2 0,1.8 0,0.7 0.1,1.4 0.2,2.1 1,7.4 5.8,13 9.7,15.1 6,3.1 15.4,2.4 21.7,-4.4 1.2,-1.3 1.9,-2.4 2.4,-3.4 -0.7,-0.2 -1.4,-0.5 -2.1,-0.9 z"
   id="path320"
   style="fill:url(#SVGID_32_)" />
		<linearGradient
   id="SVGID_33_"
   gradientUnits="userSpaceOnUse"
   x1="414.62659"
   y1="229.0128"
   x2="426.62659"
   y2="443.51279">
			<stop
   offset="0.2135"
   style="stop-color:#8DC124"
   id="stop322" />
			<stop
   offset="0.5432"
   style="stop-color:#008937"
   id="stop324" />
			<stop
   offset="0.7649"
   style="stop-color:#00612F"
   id="stop326" />
		</linearGradient>
		<path
   class="st32"
   d="m 417.3,284.8 c -0.8,1.4 -1.4,2.8 -1.9,4.2 -0.2,0.4 -0.3,0.9 -0.5,1.3 -0.6,1.7 -1,3.2 -1.3,4.5 0.5,-0.2 0.9,-0.4 1.3,-0.6 0.1,-0.4 0.3,-0.8 0.5,-1.3 0.5,-1.3 1.2,-2.7 1.9,-4.2 2.5,-4.6 4.2,-4.9 4.9,-3.5 0.1,-0.3 0.1,-0.6 0.2,-0.9 0.1,-0.5 0.1,-0.9 0.1,-1.3 0,-2.9 -2,-4.3 -5.2,1.8 z"
   id="path329"
   style="fill:url(#SVGID_33_)" />
		<linearGradient
   id="SVGID_34_"
   gradientUnits="userSpaceOnUse"
   x1="415.5181"
   y1="228.96291"
   x2="427.5181"
   y2="443.46289">
			<stop
   offset="0.2135"
   style="stop-color:#8DC124"
   id="stop331" />
			<stop
   offset="0.5432"
   style="stop-color:#008937"
   id="stop333" />
			<stop
   offset="0.7649"
   style="stop-color:#00612F"
   id="stop335" />
		</linearGradient>
		<path
   class="st33"
   d="m 423.7,295.4 c -0.4,0.4 -0.8,0.9 -1.2,1.3 v 0 c -0.9,0.9 -1.8,1.7 -2.7,2.4 -0.4,0.3 -0.8,0.6 -1.2,0.9 -2.1,1.5 -4.2,2.5 -5.9,3.1 -0.1,1 -0.2,2 -0.3,2.9 0,0.4 -0.1,0.8 -0.1,1.2 -0.1,0.5 -0.1,1 -0.2,1.5 -0.1,1.2 -0.2,2.4 -0.3,3.6 0,0.2 0,0.5 -0.1,0.8 -0.2,2.1 -0.4,4.2 -0.5,6.2 -0.4,6 -0.6,11.5 -0.6,16.6 0,0.8 0,1.7 0,2.5 0,0.1 0,0.1 0,0.2 0,-4.7 0.2,-9.8 0.6,-15.3 0.1,-2 0.3,-4.1 0.5,-6.2 0,-0.2 0,-0.5 0.1,-0.8 0.1,-1.2 0.2,-2.4 0.3,-3.6 0.1,-0.5 0.1,-1 0.2,-1.5 0,-0.4 0.1,-0.8 0.1,-1.2 0.1,-1 0.2,-1.9 0.3,-2.9 1.7,-0.5 3.7,-1.6 5.9,-3.1 0.4,-0.3 0.8,-0.6 1.2,-0.9 0.9,-0.7 1.8,-1.5 2.7,-2.4 v 0 c 0.4,-0.4 0.8,-0.8 1.2,-1.3 0.3,-0.3 0.5,-0.6 0.8,-0.9 2.8,-3.4 4.9,-7.6 5.2,-12.5 0,-0.5 0,-1 0,-1.5 0,-0.6 -0.1,-1.1 -0.1,-1.6 -0.5,4.5 -2.5,8.5 -5.1,11.7 -0.3,0.2 -0.6,0.5 -0.8,0.8 z"
   id="path338"
   style="fill:url(#SVGID_34_)" />
		<linearGradient
   id="SVGID_35_"
   gradientUnits="userSpaceOnUse"
   x1="265.2222"
   y1="237.371"
   x2="277.2222"
   y2="451.87109">
			<stop
   offset="0.2135"
   style="stop-color:#8DC124"
   id="stop340" />
			<stop
   offset="0.5432"
   style="stop-color:#008937"
   id="stop342" />
			<stop
   offset="0.7649"
   style="stop-color:#00612F"
   id="stop344" />
		</linearGradient>
		<path
   class="st34"
   d="m 268.3,367 c 5.2,-2.4 9.7,-2.8 13.6,-1.8 0.8,0.2 1.5,0.4 2.2,0.7 0.4,0.1 0.7,0.3 1,0.5 1.4,0.7 2.6,1.5 3.7,2.4 0.5,0.5 1.1,1 1.5,1.5 1.7,1.9 3,4 3.8,6.2 0.5,1.2 0.8,2.5 1,3.7 0.1,-0.7 0.2,-1.4 0.1,-2.3 0,-1.7 -0.4,-3.6 -1.1,-5.4 -0.8,-2.2 -2.1,-4.3 -3.8,-6.2 -0.5,-0.5 -1,-1 -1.5,-1.5 -1.1,-1 -2.3,-1.8 -3.7,-2.4 -0.3,-0.2 -0.7,-0.3 -1,-0.5 -0.7,-0.3 -1.4,-0.5 -2.2,-0.7 -3.8,-0.9 -8.4,-0.6 -13.6,1.8 -12.1,5.7 -17.5,16.3 -16.7,26.7 0.7,-9 6.1,-17.7 16.7,-22.7 z"
   id="path347"
   style="fill:url(#SVGID_35_)" />
		<linearGradient
   id="SVGID_36_"
   gradientUnits="userSpaceOnUse"
   x1="367.99329"
   y1="231.6216"
   x2="379.99329"
   y2="446.12161">
			<stop
   offset="0.2135"
   style="stop-color:#8DC124"
   id="stop349" />
			<stop
   offset="0.5432"
   style="stop-color:#008937"
   id="stop351" />
			<stop
   offset="0.7649"
   style="stop-color:#00612F"
   id="stop353" />
		</linearGradient>
		<path
   class="st35"
   d="m 372.6,303.1 c 0.2,0.2 0.5,0.4 0.7,0.5 2.3,1.7 4.6,2.9 6.4,3.4 0,0 0,0 0,0 0.1,1.2 0.3,2.4 0.4,3.5 0,0 0,0 0,0 0.1,1.2 0.2,2.3 0.4,3.4 0.1,1 0.2,2 0.3,2.9 0.2,2.1 0.4,4.2 0.5,6.2 0.3,4 0.5,7.8 0.5,11.4 0,1.2 0,2.4 0.1,3.6 0,-2.4 0,-5 -0.1,-7.6 -0.1,-3.6 -0.3,-7.4 -0.5,-11.4 -0.1,-2 -0.3,-4.1 -0.5,-6.2 -0.1,-1 -0.2,-1.9 -0.3,-2.9 -0.1,-1.1 -0.2,-2.3 -0.4,-3.4 0,0 0,0 0,0 -0.1,-1.2 -0.3,-2.3 -0.4,-3.5 0,0 0,0 0,0 -1.8,-0.6 -4.1,-1.8 -6.4,-3.4 -0.2,-0.2 -0.5,-0.3 -0.7,-0.5 -4.6,-3.6 -9.1,-9.2 -9.9,-16.2 -0.1,0.5 -0.1,1 -0.1,1.6 0,0.5 0,1 0,1.5 0.5,7.4 5.2,13.3 10,17.1 z"
   id="path356"
   style="fill:url(#SVGID_36_)" />
		<linearGradient
   id="SVGID_37_"
   gradientUnits="userSpaceOnUse"
   x1="468.3183"
   y1="226.009"
   x2="480.3183"
   y2="440.509">
			<stop
   offset="0.2135"
   style="stop-color:#8DC124"
   id="stop358" />
			<stop
   offset="0.5432"
   style="stop-color:#008937"
   id="stop360" />
			<stop
   offset="0.7649"
   style="stop-color:#00612F"
   id="stop362" />
		</linearGradient>
		<path
   class="st36"
   d="m 549.7,390.6 c -0.5,5.3 -2.7,10.7 -6.1,16.4 -10.2,16.9 -35.3,21.4 -36.8,21.5 -54.6,3.2 -76.6,-14.6 -89.6,-31.4 -1.5,-1.9 -2.6,-3.9 -3.7,-5.7 -0.4,-0.7 -0.8,-1.5 -1.2,-2.2 -0.2,-0.4 -0.4,-0.7 -0.5,-1.1 -0.4,-0.7 -0.7,-1.4 -1,-2 -0.3,-0.7 -0.6,-1.3 -0.9,-1.9 -0.3,-0.6 -0.5,-1.2 -0.7,-1.7 -0.3,-0.8 -0.6,-1.6 -0.9,-2.3 -0.9,-2.6 -1.3,-4.1 -1.3,-4.1 0,0 0,0 0,-0.1 0,-0.2 -0.1,-0.5 -0.2,-0.9 0,-0.1 0,-0.2 0,-0.3 -0.8,-2.9 -1.4,-5.9 -1.9,-8.8 -0.5,-3 -0.9,-6 -1.2,-9.1 -0.4,-4.1 -0.5,-8.2 -0.6,-12.4 0,0.9 0,1.7 0,2.6 v 0 c 0,4.6 0.2,9.2 0.6,13.8 0.3,3 0.6,6.1 1.2,9.1 0.5,3 1.1,5.9 1.9,8.8 0,0.1 0,0.2 0,0.3 0.1,0.4 0.2,0.8 0.2,0.9 0,0.1 0,0.1 0,0.1 0,0 0.4,1.6 1.3,4.1 0.3,0.7 0.6,1.5 0.9,2.3 0.2,0.6 0.5,1.1 0.7,1.7 0.3,0.6 0.6,1.2 0.9,1.9 0.3,0.7 0.6,1.3 1,2 0.2,0.3 0.4,0.7 0.5,1.1 0.4,0.7 0.8,1.4 1.2,2.2 1.1,1.8 2.2,3.8 3.7,5.7 12.9,16.8 35,34.7 89.6,31.4 1.4,-0.1 26.6,-4.6 36.8,-21.5 3.4,-5.7 5.6,-11.1 6.1,-16.4 0.2,-1.7 0.2,-3.4 0.1,-5.1 -0.1,0.4 -0.1,0.7 -0.1,1.1 z"
   id="path365"
   style="fill:url(#SVGID_37_)" />
		<linearGradient
   id="SVGID_38_"
   gradientUnits="userSpaceOnUse"
   x1="392.1124"
   y1="230.27229"
   x2="404.1124"
   y2="444.77231">
			<stop
   offset="0.2135"
   style="stop-color:#8DC124"
   id="stop367" />
			<stop
   offset="0.5432"
   style="stop-color:#008937"
   id="stop369" />
			<stop
   offset="0.7649"
   style="stop-color:#00612F"
   id="stop371" />
		</linearGradient>
		<path
   class="st37"
   d="m 405,304.1 c 0,0 0,-0.1 0,-0.2 0,-0.2 0,-0.4 0.1,-0.6 0,-0.2 0,-0.3 0,-0.3 h -5.3 -0.8 v 0 c -0.1,0 -0.1,0.1 -0.2,0.1 0,0 0,0 0,0 l -9.4,-0.1 h -0.8 -1.3 c 0,0.1 0,0.3 0.1,0.5 0,0 0,0 0,0.1 0,0.1 0,0.2 0,0.3 0,0 0,0 0,0 0,0 0,0 0,0.1 0,0 0,0.1 0,0.1 0,0 0,0.1 0,0.1 0.1,0.9 0.1,1.9 0.2,2.9 h 1 0.8 l 9.4,0.1 c 0,0 0,0 0,0 0,0 0.1,0 0.2,-0.1 v 0 h 0.8 5 c 0.1,-1.1 0.1,-2 0.2,-3 z"
   id="path374"
   style="fill:url(#SVGID_38_)" />
		<linearGradient
   id="SVGID_39_"
   gradientUnits="userSpaceOnUse"
   x1="308.40689"
   y1="234.95509"
   x2="320.40689"
   y2="449.45511">
			<stop
   offset="0.2135"
   style="stop-color:#8DC124"
   id="stop376" />
			<stop
   offset="0.5432"
   style="stop-color:#008937"
   id="stop378" />
			<stop
   offset="0.7649"
   style="stop-color:#00612F"
   id="stop380" />
		</linearGradient>
		<path
   class="st38"
   d="m 388.9,354.6 c -0.3,3.8 -0.7,7.6 -1.3,11.4 -0.5,3 -1.1,5.9 -1.9,8.8 -0.1,0.6 -0.2,1 -0.3,1.2 0,0.1 0,0.1 0,0.1 0,0 -0.4,1.6 -1.3,4.1 -0.3,0.7 -0.6,1.5 -0.9,2.3 -0.2,0.6 -0.5,1.1 -0.7,1.7 -0.3,0.6 -0.6,1.2 -0.9,1.9 -0.3,0.7 -0.6,1.3 -1,2 -0.2,0.3 -0.4,0.7 -0.5,1.1 -0.4,0.7 -0.8,1.4 -1.2,2.2 -0.2,0.3 -0.4,0.6 -0.5,0.9 0,0 0,0 0,0 -0.9,1.6 -1.9,3.3 -3.2,4.9 -12.9,16.8 -35,34.7 -89.6,31.4 -1.4,-0.1 -26.6,-4.6 -36.8,-21.5 -3.4,-5.7 -5.6,-11.1 -6.1,-16.4 0,-0.4 -0.1,-0.7 -0.1,-1.1 -0.1,1.7 -0.1,3.4 0.1,5.1 0.5,5.3 2.7,10.7 6.1,16.4 10.2,16.9 35.3,21.4 36.8,21.5 54.6,3.2 76.6,-14.6 89.6,-31.4 1.2,-1.6 2.2,-3.3 3.2,-4.9 0,0 0,0 0,0 0.2,-0.3 0.4,-0.6 0.5,-0.9 0.4,-0.7 0.8,-1.5 1.2,-2.2 0.2,-0.4 0.4,-0.7 0.5,-1.1 0.4,-0.7 0.7,-1.4 1,-2 0.3,-0.7 0.6,-1.3 0.9,-1.9 0.3,-0.6 0.5,-1.2 0.7,-1.7 0.3,-0.8 0.6,-1.6 0.9,-2.3 0.9,-2.6 1.3,-4.1 1.3,-4.1 0,0 0,0 0,-0.1 0.1,-0.2 0.2,-0.6 0.3,-1.2 0.8,-2.9 1.4,-5.9 1.9,-8.8 0.6,-3.7 1.1,-7.5 1.3,-11.4 0.3,-3.8 0.4,-7.7 0.4,-11.5 0,-0.9 0,-1.8 0,-2.6 0,3.3 -0.2,6.7 -0.4,10.1 z"
   id="path383"
   style="fill:url(#SVGID_39_)" />
		<linearGradient
   id="SVGID_40_"
   gradientUnits="userSpaceOnUse"
   x1="280.31781"
   y1="236.5266"
   x2="292.31781"
   y2="451.02661">
			<stop
   offset="0.2135"
   style="stop-color:#8DC124"
   id="stop385" />
			<stop
   offset="0.5432"
   style="stop-color:#008937"
   id="stop387" />
			<stop
   offset="0.7649"
   style="stop-color:#00612F"
   id="stop389" />
		</linearGradient>
		<path
   class="st39"
   d="m 304.2,381 c 0,-0.3 -0.1,-0.6 -0.1,-0.9 0,0.3 0,0.6 -0.1,0.8 -1,7.4 -5.8,13 -9.7,15.1 -4.6,2.4 -11.4,2.5 -17.2,-0.8 -1,0.7 -2.2,1.2 -3.7,1.3 6.3,5.9 15.1,6.4 20.8,3.5 3.9,-2 8.7,-7.7 9.7,-15.1 0.1,-0.7 0.1,-1.4 0.2,-2.1 0.1,-0.6 0.1,-1.2 0.1,-1.8 z"
   id="path392"
   style="fill:url(#SVGID_40_)" />
	</g>
	<linearGradient
   id="SVGID_41_"
   gradientUnits="userSpaceOnUse"
   x1="285.68369"
   y1="205.0173"
   x2="261.14221"
   y2="519.53558">
		<stop
   offset="2.972973e-02"
   style="stop-color:#D6DD00"
   id="stop396" />
		<stop
   offset="0.2135"
   style="stop-color:#8DC124"
   id="stop398" />
		<stop
   offset="0.5432"
   style="stop-color:#008937"
   id="stop400" />
		<stop
   offset="0.7649"
   style="stop-color:#00612F"
   id="stop402" />
	</linearGradient>
	<path
   class="st40"
   d="m 271.5,376.8 c -5.9,0 -10.6,4.8 -10.6,10.6 0,5.8 4.8,10.6 10.6,10.6 5.8,0 10.6,-4.8 10.6,-10.6 0,-5.8 -4.8,-10.6 -10.6,-10.6 z m 0,15.3 c -2.6,0 -4.7,-2.1 -4.7,-4.7 0,-2.6 2.1,-4.7 4.7,-4.7 2.6,0 4.7,2.1 4.7,4.7 0,2.6 -2.1,4.7 -4.7,4.7 z"
   id="path405"
   style="fill:url(#SVGID_41_)" />
	<linearGradient
   id="SVGID_42_"
   gradientUnits="userSpaceOnUse"
   x1="535.29968"
   y1="224.49451"
   x2="510.7583"
   y2="539.01282">
		<stop
   offset="2.972973e-02"
   style="stop-color:#D6DD00"
   id="stop407" />
		<stop
   offset="0.2135"
   style="stop-color:#8DC124"
   id="stop409" />
		<stop
   offset="0.5432"
   style="stop-color:#008937"
   id="stop411" />
		<stop
   offset="0.7649"
   style="stop-color:#00612F"
   id="stop413" />
	</linearGradient>
	<path
   class="st41"
   d="m 522.8,373.8 c -5.9,0 -10.6,4.8 -10.6,10.6 0,5.8 4.8,10.6 10.6,10.6 5.9,0 10.6,-4.8 10.6,-10.6 0,-5.8 -4.7,-10.6 -10.6,-10.6 z m 0,15.4 c -2.6,0 -4.7,-2.1 -4.7,-4.7 0,-2.6 2.1,-4.7 4.7,-4.7 2.6,0 4.7,2.1 4.7,4.7 0,2.6 -2.1,4.7 -4.7,4.7 z"
   id="path416"
   style="fill:url(#SVGID_42_)" />
</g></svg>
