<?xml version="1.0" standalone="no"?>
<!DOCTYPE svg PUBLIC "-//W3C//DTD SVG 20010904//EN"
 "http://www.w3.org/TR/2001/REC-SVG-20010904/DTD/svg10.dtd">
<svg version="1.0" xmlns="http://www.w3.org/2000/svg"
 width="792.000000pt" height="792.000000pt" viewBox="0 0 792.000000 792.000000"
 preserveAspectRatio="xMidYMid meet">
<metadata>
Created by potrace 1.14, written by Peter Selinger 2001-2017
</metadata>
<g transform="translate(0.000000,792.000000) scale(0.100000,-0.100000)"
fill="#000000" stroke="none">
<path d="M3849 5476 c-2 -3 -33 -7 -69 -10 -36 -3 -65 -6 -65 -6 0 -2 -12 -5
-75 -18 -72 -16 -81 -19 -150 -42 -80 -27 -310 -139 -310 -151 0 -5 -6 -9 -13
-9 -7 0 -22 -8 -33 -19 -11 -10 -31 -24 -44 -31 -25 -13 -30 -17 -82 -64 -87
-77 -165 -157 -206 -211 -25 -33 -49 -62 -52 -65 -14 -12 -96 -151 -130 -220
-58 -118 -107 -265 -135 -412 -23 -117 -23 -370 0 -503 16 -95 55 -236 76
-277 8 -15 12 -15 37 -2 15 7 32 14 39 14 21 0 24 18 9 57 -16 40 -44 148 -51
192 -19 121 -23 161 -23 272 0 69 4 145 8 170 5 24 10 58 13 74 25 150 106
366 178 473 16 24 29 45 29 48 0 3 12 22 28 42 178 238 379 396 630 496 102
41 266 84 354 93 141 14 389 3 466 -21 11 -4 31 -9 44 -11 49 -10 209 -67 279
-101 121 -58 261 -158 362 -256 89 -88 191 -212 219 -268 7 -14 26 -46 41 -72
57 -95 127 -294 152 -433 38 -210 17 -482 -55 -694 -11 -35 -20 -64 -18 -66 2
-1 22 -14 45 -28 l41 -26 12 32 c47 130 74 244 88 362 8 70 7 309 -2 375 -22
169 -63 302 -141 465 -96 199 -217 355 -385 495 -36 30 -67 58 -70 61 -16 19
-144 95 -243 146 -58 29 -257 107 -265 103 -1 -1 -35 6 -75 14 -39 9 -85 19
-102 22 -36 7 -350 16 -356 10z"/>
<path d="M3791 5073 c-150 -25 -289 -82 -401 -166 -178 -134 -254 -283 -254
-497 0 -134 29 -238 104 -377 33 -61 139 -216 159 -233 4 -3 31 -34 60 -70 57
-68 106 -162 116 -219 3 -19 8 -38 11 -43 6 -10 7 -176 0 -206 -10 -44 -60
-124 -95 -150 -57 -43 -73 -49 -123 -47 -83 5 -146 72 -133 141 3 18 23 69 45
112 70 142 82 250 40 338 -69 142 -299 215 -436 138 -59 -33 -67 -40 -93 -90
-62 -116 19 -247 155 -248 44 -1 58 4 99 37 27 20 53 37 60 37 20 0 55 58 55
91 0 59 -47 109 -101 109 -34 0 -86 -29 -98 -56 -17 -38 -13 -88 9 -111 16
-18 17 -22 4 -27 -36 -14 -67 -5 -96 26 -26 28 -29 38 -25 71 10 71 78 117
174 117 54 0 100 -17 150 -54 97 -72 104 -206 19 -346 -95 -155 -75 -289 52
-351 71 -35 187 -33 264 4 129 63 193 200 183 394 -5 81 -7 97 -23 148 -29 88
-78 170 -166 275 -76 90 -79 94 -124 158 -106 152 -153 292 -148 441 4 121 9
140 52 228 22 47 55 93 92 129 58 57 172 141 172 127 0 -4 4 -3 8 3 7 10 101
53 131 59 9 2 44 10 77 18 38 9 113 15 194 15 183 0 280 -26 465 -125 17 -9
62 -48 101 -87 179 -179 209 -427 82 -680 -45 -92 -76 -136 -204 -294 -51 -63
-106 -142 -123 -176 -72 -147 -84 -339 -28 -471 48 -113 149 -185 271 -191
159 -7 269 90 252 224 -7 60 -12 73 -46 132 -74 127 -90 222 -52 296 41 79
113 119 218 119 59 0 77 -4 110 -26 93 -61 64 -189 -41 -189 -30 0 -30 1 -7
39 23 39 18 89 -14 127 -20 23 -34 28 -73 30 -42 2 -52 -1 -77 -27 -45 -47
-36 -147 13 -163 10 -3 30 -17 46 -31 56 -53 130 -63 202 -29 44 20 72 55 85
103 8 32 8 49 -4 96 -5 22 -30 61 -53 83 -49 46 -103 66 -178 65 -89 0 -116
-7 -188 -45 -132 -71 -174 -180 -133 -343 7 -30 30 -91 35 -95 15 -12 54 -105
58 -141 5 -32 1 -45 -22 -74 -81 -107 -234 -66 -305 80 -22 44 -25 64 -24 155
0 58 3 116 7 130 3 14 8 36 11 49 3 14 17 48 32 76 24 48 39 68 98 135 47 54
145 188 184 254 109 182 147 392 102 567 -57 221 -262 405 -532 479 -128 34
-307 44 -437 23z m-710 -1413 c37 -20 18 -80 -26 -80 -43 0 -63 58 -27 79 22
13 29 13 53 1z m1810 0 c37 -20 21 -80 -22 -80 -43 0 -63 45 -33 74 18 19 28
20 55 6z"/>
<path d="M3663 4258 c-46 -22 -47 -128 -1 -198 29 -44 102 -107 119 -103 9 3
13 -10 24 -82 11 -65 14 -354 4 -430 -25 -203 -96 -371 -193 -458 -65 -58
-212 -129 -341 -164 -64 -17 -125 -24 -122 -13 1 4 -27 31 -63 60 -36 30 -80
69 -98 87 -28 27 -39 32 -60 26 -15 -4 -39 -8 -54 -8 -16 0 -28 -5 -28 -10 0
-11 114 -127 160 -164 l25 -20 -69 5 c-117 7 -180 22 -261 60 -164 78 -228
225 -160 369 71 148 267 204 357 101 28 -32 48 -81 48 -120 0 -49 -46 -96 -94
-96 -34 0 -36 2 -36 35 0 47 -19 84 -51 101 -96 49 -192 -42 -148 -140 13 -28
64 -56 101 -56 14 0 39 -7 57 -16 108 -54 227 4 258 126 26 105 -33 218 -146
279 -64 35 -183 34 -261 -1 -58 -27 -135 -100 -165 -159 -87 -168 -25 -367
150 -484 29 -19 61 -35 69 -35 9 0 16 -4 16 -8 0 -4 28 -16 63 -27 51 -16 90
-20 222 -20 176 0 222 5 340 35 295 76 500 290 549 575 23 130 24 316 3 615
-2 25 -1 25 84 27 l87 2 -6 -82 c-8 -124 -8 -455 0 -517 4 -30 12 -70 17 -87
5 -18 8 -33 6 -33 -2 0 9 -31 25 -69 48 -117 121 -215 220 -293 75 -59 229
-130 315 -145 11 -1 38 -7 60 -13 40 -9 40 -9 -10 -5 -33 3 -57 0 -70 -8 -65
-44 -307 -117 -446 -135 -121 -15 -352 -6 -454 19 -22 5 -51 11 -65 14 -45 7
-174 53 -248 87 l-72 35 -70 -15 c-38 -9 -67 -19 -65 -23 5 -7 135 -83 145
-84 3 0 10 -3 15 -7 18 -10 165 -66 195 -73 3 -1 25 -7 50 -14 25 -7 56 -15
70 -18 14 -3 30 -6 35 -7 125 -31 390 -36 517 -10 13 2 39 6 59 9 20 2 47 9
60 14 13 5 27 9 32 9 13 1 117 32 145 44 15 6 32 12 39 14 6 1 53 23 105 49
51 26 103 52 115 59 32 15 29 26 -7 26 -16 0 -30 4 -30 8 0 5 21 5 48 1 26 -4
108 -6 182 -5 113 1 146 5 204 25 148 51 243 127 299 241 28 57 32 75 32 145
0 71 -4 89 -33 147 -61 124 -170 196 -297 196 -80 0 -117 -12 -178 -55 -67
-47 -97 -104 -110 -213 -2 -16 20 -70 40 -101 35 -53 92 -82 152 -76 51 5 99
26 120 51 8 9 24 16 38 16 83 0 134 94 88 162 -33 49 -82 62 -134 36 -32 -16
-43 -28 -51 -59 -6 -21 -8 -50 -4 -64 18 -71 -119 -63 -145 8 -35 93 58 216
164 217 35 0 125 -30 125 -42 0 -4 6 -8 13 -8 22 0 91 -87 107 -137 37 -110 1
-226 -93 -294 -128 -94 -291 -128 -507 -105 -187 20 -403 109 -500 206 -50 50
-106 143 -115 192 -2 9 -8 25 -13 35 -9 17 -34 133 -47 218 -7 48 -8 317 0
366 2 18 7 58 9 87 6 58 11 72 30 72 19 0 101 81 120 118 36 71 23 180 -22
184 -9 0 -24 2 -32 3 -58 6 -135 -89 -155 -194 -2 -11 -6 -25 -9 -29 -6 -9
-168 -8 -184 2 -5 3 -13 22 -17 43 -8 43 -41 111 -64 133 -51 49 -85 59 -128
38z m95 -148 c33 -65 29 -81 -11 -50 -39 31 -59 110 -28 110 4 0 22 -27 39
-60z m462 31 c0 -20 -12 -42 -36 -68 -44 -45 -54 -32 -23 29 38 75 59 89 59
39z m1047 -951 c10 -20 9 -27 -4 -42 -43 -47 -107 9 -68 59 16 21 58 11 72
-17z m-2517 -14 c31 -38 -9 -89 -54 -68 -45 20 -30 82 20 82 12 0 27 -7 34
-14z"/>
<path d="M4930 2919 c-36 -33 -80 -70 -97 -82 -18 -12 -33 -25 -33 -28 0 -10
28 -15 90 -18 l55 -2 88 85 c48 46 87 86 87 89 0 3 -20 5 -44 5 -25 0 -53 3
-63 6 -12 3 -38 -14 -83 -55z"/>
</g>
</svg>
